<svg xmlns="http://www.w3.org/2000/svg"
    xmlns:xlink="http://www.w3.org/1999/xlink" width="130" height="100" viewBox="0 0 130 100">
    <defs>
        <filter id="Rectangle_7" x="0" y="0" width="130" height="100" filterUnits="userSpaceOnUse">
            <feOffset dy="3" input="SourceAlpha"/>
            <feGaussianBlur stdDeviation="12" result="blur"/>
            <feFlood flood-color="#771fb9" flood-opacity="0.149"/>
            <feComposite operator="in" in2="blur"/>
            <feComposite in="SourceGraphic"/>
        </filter>
    </defs>
    <g id="Group_20" data-name="Group 20" transform="translate(-189 -42)">
        <g id="Group_16" data-name="Group 16" transform="translate(224.769 75.22)">
            <g transform="matrix(1, 0, 0, 1, -35.77, -33.22)" filter="url(#Rectangle_7)">
                <rect id="Rectangle_7-2" data-name="Rectangle 7" width="58" height="28" rx="3" transform="translate(36 33)" fill="#fff"/>
            </g>
        </g>
        <g id="mastercard" transform="translate(238.91 -20.654)">
            <path id="Path_10" data-name="Path 10" d="M219.708,109.854a9.054,9.054,0,1,1-18.108,0h0a9.054,9.054,0,1,1,18.108,0Z" transform="translate(-189.528 0)" fill="#ffb600"/>
            <path id="Path_11" data-name="Path 11" d="M210.654,100.8a9.078,9.078,0,0,1,9.054,9.054h0a9.054,9.054,0,1,1-18.108,0" transform="translate(-189.528 0)" fill="#f7981d"/>
            <path id="Path_12" data-name="Path 12" d="M352.8,100.8a9.078,9.078,0,0,1,9.054,9.054h0a9.047,9.047,0,0,1-9.054,9.054" transform="translate(-331.674 0)" fill="#ff8500"/>
            <path id="Path_13" data-name="Path 13" d="M8.958,100.8a9.054,9.054,0,0,0,.1,18.108,9.159,9.159,0,0,0,6.084-2.347h0a8.609,8.609,0,0,0,.91-.958H14.18a11.051,11.051,0,0,1-.671-.91h3.21a6.137,6.137,0,0,0,.527-.958H12.982a5.71,5.71,0,0,1-.383-.958h4.982a9.512,9.512,0,0,0,.479-2.874,12.365,12.365,0,0,0-.192-1.916H12.312a7,7,0,0,1,.24-.958h4.982a5.709,5.709,0,0,0-.383-.958H12.934a9.5,9.5,0,0,1,.527-.958h3.21a4.555,4.555,0,0,0-.719-.958H14.18a8.166,8.166,0,0,1,.91-.91A8.84,8.84,0,0,0,9.006,100.9C9.006,100.8,9.006,100.8,8.958,100.8Z" transform="translate(0 0)" fill="#ff5050"/>
            <path id="Path_14" data-name="Path 14" d="M0,111.358a9.047,9.047,0,0,0,9.054,9.054,9.159,9.159,0,0,0,6.084-2.347h0a8.608,8.608,0,0,0,.91-.958H14.18a11.046,11.046,0,0,1-.671-.91h3.21a6.137,6.137,0,0,0,.527-.958H12.982a5.709,5.709,0,0,1-.383-.958h4.982a9.512,9.512,0,0,0,.479-2.874,12.365,12.365,0,0,0-.192-1.916H12.312a7,7,0,0,1,.24-.958h4.982a5.71,5.71,0,0,0-.383-.958H12.934a9.5,9.5,0,0,1,.527-.958h3.21a4.556,4.556,0,0,0-.719-.958H14.18a8.164,8.164,0,0,1,.91-.91A8.84,8.84,0,0,0,9.006,102.4H8.958" transform="translate(0 -1.504)" fill="#e52836"/>
            <path id="Path_15" data-name="Path 15" d="M149.7,120.412a9.16,9.16,0,0,0,6.084-2.347h0a8.61,8.61,0,0,0,.91-.958h-1.868a11.045,11.045,0,0,1-.671-.91h3.21a6.136,6.136,0,0,0,.527-.958h-4.264a5.714,5.714,0,0,1-.383-.958h4.982a9.513,9.513,0,0,0,.479-2.874,12.367,12.367,0,0,0-.192-1.916h-5.557a7,7,0,0,1,.24-.958h4.982a5.7,5.7,0,0,0-.383-.958h-4.216a9.5,9.5,0,0,1,.527-.958h3.21a4.555,4.555,0,0,0-.719-.958h-1.772a8.164,8.164,0,0,1,.91-.91,8.84,8.84,0,0,0-6.084-2.347H149.6" transform="translate(-140.642 -1.504)" fill="#cb2026"/>
            <g id="Group_18" data-name="Group 18" transform="translate(0.862 107.507)">
                <path id="Path_16" data-name="Path 16" d="M182.989,224.216l.144-.814a2.075,2.075,0,0,1-.24.048c-.335,0-.383-.192-.335-.287l.287-1.677h.527l.144-.91h-.479l.1-.575h-.958s-.575,3.162-.575,3.545a.719.719,0,0,0,.766.814A1.47,1.47,0,0,0,182.989,224.216Z" transform="translate(-171.588 -219.569)" fill="#fff"/>
                <path id="Path_17" data-name="Path 17" d="M210.4,230.861a1.524,1.524,0,0,0,1.677,1.677,2.487,2.487,0,0,0,1.006-.144l.192-.91a2.872,2.872,0,0,1-1.006.24c-1.054,0-.862-.766-.862-.766h1.964a6.211,6.211,0,0,0,.144-.862,1.3,1.3,0,0,0-1.389-1.389C211.119,228.609,210.4,229.663,210.4,230.861Zm1.677-1.389c.527,0,.431.623.431.671h-1.054C211.454,230.094,211.55,229.471,212.077,229.471Z" transform="translate(-198.663 -227.747)" fill="#fff"/>
                <path id="Path_18" data-name="Path 18" d="M298.635,217.447l.192-1.054a2.354,2.354,0,0,1-.814.24c-.671,0-.958-.527-.958-1.1,0-1.15.575-1.772,1.246-1.772a1.6,1.6,0,0,1,.862.287l.144-1.006a3.368,3.368,0,0,0-1.1-.24c-1.1,0-2.2.958-2.2,2.778,0,1.2.575,2.012,1.725,2.012A4.3,4.3,0,0,0,298.635,217.447Z" transform="translate(-279.137 -212.8)" fill="#fff"/>
                <path id="Path_19" data-name="Path 19" d="M88.22,227.2a3.393,3.393,0,0,0-1.15.192l-.144.814a2.831,2.831,0,0,1,1.054-.192c.335,0,.623.048.623.335,0,.192-.048.24-.048.24h-.431c-.814,0-1.725.335-1.725,1.437,0,.862.575,1.054.91,1.054a1.439,1.439,0,0,0,1.006-.431l-.048.383h.862l.383-2.635A1.135,1.135,0,0,0,88.22,227.2Zm.192,2.156c0,.144-.1.91-.671.91a.374.374,0,0,1-.383-.383c0-.24.144-.575.862-.575A.755.755,0,0,0,88.412,229.356Z" transform="translate(-82.089 -226.338)" fill="#fff"/>
                <path id="Path_20" data-name="Path 20" d="M136.3,230.328a1.228,1.228,0,0,0,1.437-1.246c0-1.2-1.15-.958-1.15-1.437,0-.24.192-.335.527-.335.144,0,.671.048.671.048l.144-.862a3.639,3.639,0,0,0-.91-.1c-.719,0-1.437.287-1.437,1.246,0,1.1,1.2,1.006,1.2,1.437,0,.287-.335.335-.575.335a3.133,3.133,0,0,1-.862-.144l-.144.862C135.248,230.232,135.487,230.328,136.3,230.328Z" transform="translate(-127.966 -225.586)" fill="#fff"/>
                <path id="Path_21" data-name="Path 21" d="M429.931,214.4l-.192,1.293a1.329,1.329,0,0,0-.91-.479c-.862,0-1.629,1.054-1.629,2.3,0,.766.383,1.581,1.2,1.581a1.279,1.279,0,0,0,.91-.383l-.048.335h.958l.719-4.6Zm-.431,2.539c0,.527-.24,1.2-.766,1.2-.335,0-.527-.287-.527-.766,0-.766.335-1.246.766-1.246C429.308,216.125,429.5,216.364,429.5,216.939Z" transform="translate(-402.481 -214.304)" fill="#fff"/>
                <path id="Path_22" data-name="Path 22" d="M15.31,219l.575-3.449.1,3.449h.671L17.9,215.55,17.37,219h1.006l.766-4.6H17.562l-.958,2.826-.048-2.826H15.166L14.4,219Z" transform="translate(-14.4 -214.304)" fill="#fff"/>
                <path id="Path_23" data-name="Path 23" d="M261.054,232.537c.287-1.581.335-2.874,1.006-2.635a3.764,3.764,0,0,1,.335-1.1H262.2c-.431,0-.766.575-.766.575l.1-.527h-.91L260,232.585h1.054Z" transform="translate(-245.293 -227.842)" fill="#fff"/>
                <path id="Path_24" data-name="Path 24" d="M348.22,227.2a3.393,3.393,0,0,0-1.15.192l-.144.814a2.831,2.831,0,0,1,1.054-.192c.335,0,.623.048.623.335,0,.192-.048.24-.048.24h-.431c-.814,0-1.725.335-1.725,1.437,0,.862.575,1.054.91,1.054a1.44,1.44,0,0,0,1.006-.431l-.048.383h.862l.383-2.635A1.119,1.119,0,0,0,348.22,227.2Zm.24,2.156c0,.144-.1.91-.671.91a.374.374,0,0,1-.383-.383c0-.24.144-.575.862-.575C348.412,229.356,348.412,229.356,348.46,229.356Z" transform="translate(-326.519 -226.338)" fill="#fff"/>
                <path id="Path_25" data-name="Path 25" d="M395.454,232.537c.287-1.581.335-2.874,1.006-2.635a3.758,3.758,0,0,1,.335-1.1H396.6c-.431,0-.766.575-.766.575l.1-.527h-.91l-.623,3.737h1.054Z" transform="translate(-371.645 -227.842)" fill="#fff"/>
            </g>
            <g id="Group_19" data-name="Group 19" transform="translate(0.862 107.507)">
                <path id="Path_26" data-name="Path 26" d="M180,223.545a.719.719,0,0,0,.766.814,1.823,1.823,0,0,0,.719-.144l.144-.814a2.072,2.072,0,0,1-.24.048c-.335,0-.383-.192-.335-.287l.287-1.677h.527l.144-.91h-.479l.1-.575" transform="translate(-170.084 -219.569)" fill="#dce5e5"/>
                <path id="Path_27" data-name="Path 27" d="M218.4,230.861c0,1.341.431,1.677,1.2,1.677a2.487,2.487,0,0,0,1.006-.144l.192-.91a2.872,2.872,0,0,1-1.006.24c-1.054,0-.862-.766-.862-.766h1.964a6.211,6.211,0,0,0,.144-.862,1.3,1.3,0,0,0-1.389-1.389C218.64,228.609,218.4,229.663,218.4,230.861Zm1.2-1.389c.527,0,.623.623.623.671h-1.246C218.975,230.094,219.071,229.471,219.6,229.471Z" transform="translate(-206.184 -227.747)" fill="#dce5e5"/>
                <path id="Path_28" data-name="Path 28" d="M306.156,217.447l.192-1.054a2.354,2.354,0,0,1-.814.24c-.671,0-.958-.527-.958-1.1,0-1.15.575-1.772,1.245-1.772a1.6,1.6,0,0,1,.862.287l.144-1.006a3.368,3.368,0,0,0-1.1-.24c-1.1,0-1.725.958-1.725,2.778,0,1.2.1,2.012,1.245,2.012A4.3,4.3,0,0,0,306.156,217.447Z" transform="translate(-286.658 -212.8)" fill="#dce5e5"/>
                <path id="Path_29" data-name="Path 29" d="M86.927,229.758a2.831,2.831,0,0,1,1.054-.192c.335,0,.623.048.623.335,0,.192-.048.24-.048.24h-.431c-.814,0-1.725.335-1.725,1.437,0,.862.575,1.054.91,1.054a1.439,1.439,0,0,0,1.006-.431l-.048.383h.862l.383-2.635c0-1.1-.958-1.15-1.341-1.15m.719,2.06a1.568,1.568,0,0,1-1.15.91.374.374,0,0,1-.383-.383c0-.24.144-.575.862-.575A3.913,3.913,0,0,0,88.891,230.86Z" transform="translate(-82.089 -227.842)" fill="#dce5e5"/>
                <path id="Path_30" data-name="Path 30" d="M136,230.232a4.054,4.054,0,0,0,1.1.1,1.228,1.228,0,0,0,1.437-1.246c0-1.2-1.15-.958-1.15-1.437,0-.24.192-.335.527-.335.144,0,.671.048.671.048l.144-.862a3.639,3.639,0,0,0-.91-.1c-.719,0-.958.287-.958,1.246,0,1.1.719,1.006.719,1.437,0,.287-.335.335-.575.335" transform="translate(-128.718 -225.586)" fill="#dce5e5"/>
                <path id="Path_31" data-name="Path 31" d="M437.205,216.446a1.328,1.328,0,0,0-.91-.479c-.862,0-1.15,1.054-1.15,2.3,0,.766-.1,1.581.719,1.581a1.279,1.279,0,0,0,.91-.383l-.048.335h.958l.719-4.6m-1.246,2.491c0,.527-.431,1.2-.958,1.2-.335,0-.527-.287-.527-.766,0-.767.335-1.246.766-1.246A.732.732,0,0,1,437.157,217.691Z" transform="translate(-409.948 -215.056)" fill="#dce5e5"/>
                <path id="Path_32" data-name="Path 32" d="M15.31,219l.575-3.449.1,3.449h.671L17.9,215.55,17.37,219h1.006l.766-4.6h-1.2L16.6,217.226l-.048-2.826h-.527L14.4,219Z" transform="translate(-14.4 -214.304)" fill="#dce5e5"/>
                <path id="Path_33" data-name="Path 33" d="M260.8,232.537h1.006c.287-1.581.335-2.874,1.006-2.635a3.759,3.759,0,0,1,.335-1.1h-.192c-.431,0-.766.575-.766.575l.1-.527" transform="translate(-246.045 -227.842)" fill="#dce5e5"/>
                <path id="Path_34" data-name="Path 34" d="M346.927,229.758a2.831,2.831,0,0,1,1.054-.192c.335,0,.623.048.623.335,0,.192-.048.24-.048.24h-.431c-.814,0-1.725.335-1.725,1.437,0,.862.575,1.054.91,1.054a1.44,1.44,0,0,0,1.006-.431l-.048.383h.862l.383-2.635c0-1.1-.958-1.15-1.341-1.15m.719,2.06a1.568,1.568,0,0,1-1.15.91.374.374,0,0,1-.383-.383c0-.24.144-.575.862-.575A4.214,4.214,0,0,0,348.891,230.86Z" transform="translate(-326.52 -227.842)" fill="#dce5e5"/>
                <path id="Path_35" data-name="Path 35" d="M395.2,232.537h1.006c.287-1.581.335-2.874,1.006-2.635a3.764,3.764,0,0,1,.335-1.1h-.192c-.431,0-.766.575-.766.575l.1-.527" transform="translate(-372.397 -227.842)" fill="#dce5e5"/>
            </g>
        </g>
    </g>
</svg>
