<svg xmlns="http://www.w3.org/2000/svg"
    xmlns:xlink="http://www.w3.org/1999/xlink" width="130" height="100" viewBox="0 0 130 100">
    <defs>
        <filter id="Path_56" x="0" y="0" width="130" height="100" filterUnits="userSpaceOnUse">
            <feOffset dy="3" input="SourceAlpha"/>
            <feGaussianBlur stdDeviation="12" result="blur"/>
            <feFlood flood-color="#771fb9" flood-opacity="0.141"/>
            <feComposite operator="in" in2="blur"/>
            <feComposite in="SourceGraphic"/>
        </filter>
    </defs>
    <g id="Group_15" data-name="Group 15" transform="translate(35.869 33.22)">
        <g transform="matrix(1, 0, 0, 1, -35.87, -33.22)" filter="url(#Path_56)">
            <path id="Path_56-2" data-name="Path 56" d="M3,0H55a3,3,0,0,1,3,3V25a3,3,0,0,1-3,3H3a3,3,0,0,1-3-3V3A3,3,0,0,1,3,0Z" transform="translate(36 33)" fill="#fff"/>
        </g>
        <g id="visa_1_" data-name="visa (1)" transform="translate(11.139 8.693)">
            <g id="Group_14" data-name="Group 14" transform="translate(3.354 0)">
                <g id="Group_13" data-name="Group 13" transform="translate(0 0)">
                    <path id="Path_8" data-name="Path 8" d="M38.58,100.23l-1.8,11.21h2.879l1.8-11.21Zm8.685,4.566c-1.006-.5-1.623-.832-1.623-1.34.012-.462.522-.935,1.659-.935a5.011,5.011,0,0,1,2.145.415l.261.117.391-2.345a7.267,7.267,0,0,0-2.584-.462c-2.843,0-4.846,1.478-4.858,3.593-.023,1.56,1.433,2.426,2.524,2.945,1.114.533,1.493.878,1.493,1.352-.012.727-.9,1.062-1.73,1.062a5.856,5.856,0,0,1-2.7-.578l-.379-.173-.4,2.437a8.992,8.992,0,0,0,3.211.579c3.022,0,4.988-1.456,5.013-3.709C49.693,106.517,48.925,105.57,47.265,104.8Zm10.215-4.532H55.252a1.427,1.427,0,0,0-1.505.9L49.47,111.44h3.022l.832-2.224H56.7l.432,2.233H59.8Zm-3.318,6.706c.058.006,1.16-3.631,1.16-3.631l.877,3.631ZM34.372,100.23l-2.821,7.616-.307-1.5a8.369,8.369,0,0,0-3.982-4.552l2.583,9.636h3.046l4.527-11.2H34.372Z" transform="translate(-27.262 -100.23)" fill="#2394bc"/>
                </g>
            </g>
            <path id="Path_9" data-name="Path 9" d="M6.387,101.692a1.881,1.881,0,0,0-1.873-1.444H.046L0,100.455a10.966,10.966,0,0,1,7.359,5.99Z" transform="translate(0 -100.246)" fill="#efc75e"/>
        </g>
    </g>
</svg>
